<svg class="w-20 md:w-32 lg:w-48" viewBox="0 0 199 74" version="1.1" xmlns="http://www.w3.org/2000/svg" xmlns:xlink="http://www.w3.org/1999/xlink" xml:space="preserve" xmlns:serif="http://www.serif.com/" style="fill-rule:evenodd;clip-rule:evenodd;stroke-linejoin:round;stroke-miterlimit:2;" width="199"  height="74" >
    <g transform="matrix(1,0,0,1,-23.8,-29.6)">
        <g>
            <g>
                <path d="M88.2,79.7L87.2,79.7L87.2,78.1L88.2,78.1L88.2,76L89.9,75.6L89.9,78.1L91.1,78.1L91.1,79.7L89.9,79.7L89.9,85.9L88.2,85.9L88.2,79.7Z" style="fill-rule: nonzero;" fill="#6DA5D5"></path>
            </g>
            <g>
                <path d="M93.1,75.8L94.9,75.8L94.9,79.1C95.4,78.4 96.2,77.9 97.3,77.9C99,77.9 100.4,79.3 100.4,81.2L100.4,85.9L98.7,85.9L98.7,81.6C98.7,80.2 97.9,79.6 96.8,79.6C95.7,79.6 94.8,80.3 94.8,81.6L94.8,85.9L93.1,85.9L93.1,75.8Z" style="fill-rule: nonzero;" fill="#6DA5D5"></path>
            </g>
        </g>
        <g>
            <g>
                <path d="M110.7,84.2C109.7,85.4 108.4,86.1 107,86.1C104.2,86.1 102.6,84.1 102.6,82C102.6,80 104.2,77.9 107,77.9C108.7,77.9 111.1,79.2 111.1,82.2L111.1,82.5L104.5,82.5C104.6,83.7 105.7,84.5 106.9,84.5C107.8,84.5 108.6,84.1 109.2,83.3L110.7,84.2ZM109.1,81.2C108.7,80 107.8,79.4 106.8,79.4C105.7,79.4 104.8,80.1 104.6,81.2L109.1,81.2Z" style="fill-rule: nonzero;" fill="#6DA5D5"></path>
            </g>
        </g>
        <g>
            <g>
                <path d="M119,81.3L117.9,81.3L117.9,79.7L119,79.7L119,78.4C119,77 119.9,75.6 122,75.6C122.4,75.6 123,75.7 123.3,75.8L122.6,77.3C122.4,77.2 122.2,77.2 121.8,77.2C121.1,77.2 120.7,77.8 120.7,78.3L120.7,79.7L122.4,79.7L122.4,81.3L120.7,81.3L120.7,88.5L119,88.5L119,81.3Z" style="fill-rule: nonzero;" fill="#6DA5D5"></path>
            </g>
            <g>
                <path d="M125.6,75.6C126.1,75.6 126.6,76 126.6,76.5C126.6,77 126.2,77.4 125.6,77.4C125.1,77.4 124.6,77 124.6,76.5C124.6,76 125,75.6 125.6,75.6ZM124.7,78.1L126.4,78.1L126.4,85.8L124.7,85.8L124.7,78.1Z" style="fill-rule: nonzero;" fill="#6DA5D5"></path>
            </g>
        </g>
        <g>
            <g>
                <path d="M129.4,75.8L131.1,75.8L131.1,79C131.5,78.4 132.6,77.8 133.7,77.8C135.8,77.8 137.8,79.3 137.8,81.9C137.8,84.5 135.7,86 133.7,86C132.6,86 131.5,85.5 131.1,84.8L131.1,85.7L129.4,85.7L129.4,75.8ZM133.6,79.5C132.2,79.5 131.1,80.6 131.1,82C131.1,83.4 132.1,84.5 133.6,84.5C135,84.5 136.1,83.4 136.1,82C136.1,80.6 135,79.5 133.6,79.5Z" style="fill-rule: nonzero;" fill="#6DA5D5"></path>
            </g>
            <g>
                <path d="M147.6,84.2C146.6,85.4 145.3,86.1 143.9,86.1C141.1,86.1 139.5,84.1 139.5,82C139.5,80 141.1,77.9 143.9,77.9C145.6,77.9 148,79.2 148,82.2L148,82.5L141.4,82.5C141.5,83.7 142.6,84.5 143.8,84.5C144.7,84.5 145.5,84.1 146.1,83.3L147.6,84.2ZM146.1,81.2C145.7,80 144.8,79.4 143.8,79.4C142.7,79.4 141.8,80.1 141.6,81.2L146.1,81.2Z" style="fill-rule: nonzero;" fill="#6DA5D5"></path>
            </g>
            <g>
                <path d="M150.4,78.1L152,78.1L152,79C152.3,78.4 152.9,77.9 153.6,77.9C154,77.9 154.3,78 154.5,78.1L153.9,79.7C153.7,79.6 153.4,79.5 153.3,79.5C152.7,79.5 152.1,80 152.1,80.7L152.1,85.8L150.4,85.8L150.4,78.1Z" style="fill-rule: nonzero;" fill="#6DA5D5"></path>
            </g>
        </g>
        <g>
            <g>
                <path d="M161.2,81C161.2,79 162.5,77.9 164.1,77.9C165.3,77.9 166.2,78.5 166.5,79.3C166.8,78.5 167.7,77.9 168.9,77.9C170.5,77.9 171.8,79 171.8,81L171.8,85.8L170.1,85.8L170.1,81C170.1,80.1 169.5,79.5 168.8,79.5C168,79.5 167.4,80 167.4,81.2L167.4,85.8L165.7,85.8L165.7,81.2C165.7,80 165.1,79.5 164.3,79.5C163.6,79.5 163,80 163,81L163,85.8L161.3,85.8L161.3,81L161.2,81Z" style="fill-rule: nonzero;" fill="#6DA5D5"></path>
            </g>
            <g>
                <path d="M181.8,84.2C180.8,85.4 179.5,86.1 178.1,86.1C175.3,86.1 173.7,84.1 173.7,82C173.7,80 175.3,77.9 178.1,77.9C179.8,77.9 182.2,79.2 182.2,82.2L182.2,82.5L175.6,82.5C175.7,83.7 176.8,84.5 178,84.5C178.9,84.5 179.7,84.1 180.3,83.3L181.8,84.2ZM180.3,81.2C179.9,80 179,79.4 178,79.4C176.9,79.4 176,80.1 175.8,81.2L180.3,81.2Z" style="fill-rule: nonzero;" fill="#6DA5D5"></path>
            </g>
        </g>
        <g>
            <g>
                <path d="M192.1,84.2C191.2,85.4 189.8,86.1 188.4,86.1C185.6,86.1 184,84.1 184,82C184,80 185.6,77.9 188.4,77.9C190.1,77.9 192.5,79.2 192.5,82.2L192.5,82.5L185.9,82.5C186,83.7 187.1,84.5 188.3,84.5C189.2,84.5 190,84.1 190.6,83.3L192.1,84.2ZM190.5,81.2C190.1,80 189.2,79.4 188.2,79.4C187.1,79.4 186.2,80.1 186,81.2L190.5,81.2Z" style="fill-rule: nonzero;" fill="#6DA5D5"></path>
            </g>
        </g>
        <g>
            <g>
                <path d="M194.9,79.7L193.9,79.7L193.9,78.1L194.9,78.1L194.9,76L196.6,75.6L196.6,78.1L197.8,78.1L197.8,79.7L196.6,79.7L196.6,85.9L194.9,85.9L194.9,79.7Z" style="fill-rule: nonzero;" fill="#6DA5D5"></path>
            </g>
            <g>
                <path d="M200.8,75.6C201.3,75.6 201.7,76 201.7,76.5C201.7,77 201.3,77.4 200.8,77.4C200.3,77.4 199.8,77 199.8,76.5C199.8,76 200.3,75.6 200.8,75.6ZM199.9,78.1L201.6,78.1L201.6,85.8L199.9,85.8L199.9,78.1Z" style="fill-rule: nonzero;" fill="#6DA5D5"></path>
            </g>
            <g>
                <path d="M204.6,78.1L206.4,78.1L206.4,79.1C206.9,78.4 207.7,77.9 208.8,77.9C210.5,77.9 211.9,79.3 211.9,81.2L211.9,85.9L210.2,85.9L210.2,81.6C210.2,80.2 209.4,79.6 208.3,79.6C207.2,79.6 206.3,80.3 206.3,81.6L206.3,85.9L204.6,85.9L204.6,78.1Z" style="fill-rule: nonzero;" fill="#6DA5D5"></path>
            </g>
        </g>
        <g>
            <g>
                <path d="M222.1,85C222.1,87.6 220.1,89 218,89C216.9,89 215.6,88.6 214.7,87.5L216.1,86.5C216.4,86.9 217.2,87.5 218,87.5C219.7,87.5 220.6,86.4 220.6,85.2L220.6,84.7C219.9,85.5 219.1,85.9 217.9,85.9C215.9,85.9 214,84.4 214,82C214,79.5 215.9,78 218,78C219.1,78 219.9,78.4 220.5,79.1L220.5,78.2L222.1,78.2L222.1,85ZM218.2,84.3C219.6,84.3 220.6,83.2 220.6,81.9C220.6,80.6 219.5,79.5 218.2,79.5C216.9,79.5 215.8,80.6 215.8,81.9C215.8,83.2 216.7,84.3 218.2,84.3Z" style="fill-rule: nonzero;" fill="#6DA5D5"></path>
            </g>
        </g>
    </g>
            <g transform="matrix(1,0,0,1,-23.8,-29.6)">
                <g>
                    <path d="M68.4,76.7L49.7,87.5L31,76.7L31,55.1L49.7,44.3L68.4,55.1L68.4,76.7Z" style="fill-rule: nonzero;" fill="#004696"></path>
                </g>
                <g>
                    <rect x="23.8" y="64.8" width="24.1" height="2.7" style="" fill="#E20035"></rect>
                </g>
                <g>
                    <rect x="51.3" y="64.8" width="24.1" height="2.7" style="" fill="#8AB4DC"></rect>
                </g>
                <g>
                    <g>
                        <path d="M51.5,35.1C51.5,33.2 52.1,31.2 51.6,29.6L51.5,29.6C51.2,29.9 51.2,30.2 51.3,30.7C51.2,30.9 51.1,30.6 51,30.9C51.1,31.4 50.8,32.1 50.9,32.7C49.7,48.4 49.1,63.8 48.4,80.4C48.2,71.3 48.8,62.2 49.2,53.1C49.1,51.6 49.2,50.5 48.6,49.4C48.4,50.1 48.1,51 48,51.8C47.2,62.7 48.1,75.4 48,86.9C48,88 48.4,90.3 48.7,91C48.7,90.6 48.9,87.3 48.9,87C49.1,77.9 49.1,68.4 49.8,59.7C49.5,74.8 49.8,88 50.5,103.4L50.7,101.9C50.9,79.7 50.1,58.3 51.5,35.1Z" style="fill-rule: nonzero;" fill="#FFD100"></path>
                        <path d="M50.6,103.3C49.8,87.9 49.5,75.2 49.8,61C49.3,67.2 49.2,73.8 49.1,80.2C49.1,82.4 49,84.7 49,87C49,87.2 49,88.2 48.9,89.2C48.8,90 48.8,90.8 48.8,91L48.7,91C48.4,90.3 48,88.1 48.1,86.8C48.2,82.4 48.1,77.7 48,73.1C47.8,65.8 47.7,58.4 48.2,51.7C48.3,51 48.5,50.3 48.7,49.6C48.7,49.5 48.8,49.3 48.8,49.2L48.8,49.1L48.9,49.2C49.3,50.1 49.4,50.9 49.4,52C49.4,52.3 49.4,52.6 49.5,53C49.4,54.4 49.4,55.7 49.3,57.1C48.9,64.1 48.6,71.4 48.6,78.6L48.6,78C49.2,62.3 49.9,47.6 51,32.6C50.9,32.3 51,32 51,31.7C51,31.4 51.1,31.1 51,30.9C51.1,30.8 51.1,30.8 51.2,30.8L51.3,30.8C51.2,30.3 51.2,30 51.5,29.7L51.7,29.7C52,30.8 51.9,32 51.8,33.2C51.7,33.9 51.6,34.5 51.6,35.2C50.6,51.8 50.7,67.7 50.8,83.1C50.8,89.3 50.9,95.6 50.9,101.9L50.6,103.3ZM49.8,59.6C49.6,74.2 49.8,87.2 50.6,102.9L50.8,101.8C50.8,95.5 50.8,89.1 50.7,83C50.6,67.6 50.5,51.7 51.5,35.1C51.5,34.5 51.6,33.8 51.7,33.1C51.8,31.8 52,30.7 51.7,29.6L51.6,29.6C51.3,29.9 51.3,30.2 51.4,30.7C51.3,30.8 51.3,30.8 51.2,30.8L51.1,30.9L51.1,31.8C51.1,32.1 51,32.4 51.1,32.7C49.9,47.7 49.3,62.5 48.7,78.1L48.6,80.4L48.5,80.4C48.4,72.6 48.8,64.8 49.1,57.2C49.2,55.8 49.2,54.5 49.3,53.1C49.3,52.8 49.3,52.4 49.2,52.1C49.2,51.1 49.1,50.3 48.7,49.5C48.7,49.6 48.7,49.7 48.6,49.8C48.4,50.4 48.2,51.2 48.1,51.8C47.6,58.5 47.8,66 47.9,73.2C48,77.7 48.1,82.4 48,86.9C47.9,88 48.3,90 48.5,90.8C48.5,90.5 48.6,89.9 48.6,89.2C48.7,88.3 48.7,87.2 48.7,87C48.8,84.8 48.8,82.5 48.8,80.2C49.1,73.3 49.2,66.2 49.8,59.6Z" style="fill-rule: nonzero;" fill="#FFD100"></path>
                    </g>
                    <g>
                        <path d="M52.5,39.6L51.7,48.3C51.6,45.2 52,41.8 52.1,39.1C52.1,39.6 51.9,40.3 51.8,40.3L51.2,49.2C51,63.2 50.3,77.6 50.9,91.5L51.2,93.8C51.6,91.4 51.2,88.3 51.1,85.6C51.1,83.3 51.2,81.7 51,79.5L51.1,72.8L51.2,72.6C51.1,63.7 51.8,56.9 52.1,48C52.2,47.5 51.8,47.6 52,47.2C52.1,47.2 52.1,47.3 52.1,47.3C52.1,46.9 52.1,47.1 52,47C52.3,46.2 52.1,44.6 52.2,44C52.7,42.7 52.9,40.6 52.5,39.6Z" style="fill-rule: nonzero;" fill="#FFD100"></path>
                        <path d="M51.4,93.7L51,91.4C50.5,80.9 50.8,70 51,59.4C51.1,56 51.2,52.5 51.2,49.1L51.8,40.2C51.9,40.2 52,39.7 52,39.3L52,39L52.1,39L52.1,39.2C52.1,39.8 52,40.4 52,41C51.8,43 51.7,45.2 51.7,47.4L52.4,39.5L52.5,39.5C52.9,40.6 52.7,42.8 52.5,43.7C52.4,44 52.4,44.4 52.5,44.9C52.5,45.5 52.5,46.3 52.3,46.8C52.4,46.8 52.4,46.9 52.4,47.1L52.3,47.1L52.3,47C52.2,47.2 52.3,47.2 52.3,47.3C52.4,47.4 52.4,47.5 52.4,47.8C52.3,50.9 52.1,53.7 52,56.5C51.7,61.7 51.4,66.6 51.5,72.4L51.4,72.6L51.3,79.3C51.4,80.6 51.4,81.7 51.4,82.9L51.4,85.4C51.4,86.3 51.5,87.3 51.5,88.2C51.5,90.2 51.6,92.1 51.4,93.7ZM51.9,40.3L51.3,49.2C51.2,52.6 51.2,56.1 51.1,59.5C50.8,70.1 50.6,81 51.1,91.5L51.4,93.4C51.6,91.9 51.5,90.1 51.4,88.3C51.4,87.4 51.3,86.4 51.3,85.5L51.3,83C51.3,81.8 51.3,80.7 51.2,79.4L51.3,72.6L51.4,72.4C51.3,66.6 51.6,61.7 51.9,56.5C52.1,53.7 52.2,50.9 52.3,47.8C52.4,47.6 52.3,47.5 52.3,47.4C52.2,47.3 52.2,47.2 52.3,47L52.4,47L52.4,46.9C52.4,46.9 52.3,46.9 52.3,46.8C52.5,46.3 52.5,45.6 52.5,44.9C52.5,44.4 52.5,44 52.6,43.7C52.8,42.7 53,40.8 52.7,39.8L51.9,48.2L51.8,48.2C51.7,45.8 51.9,43.3 52.1,41C52.1,40.7 52.2,40.3 52.2,40C52,40.1 51.9,40.2 51.9,40.3Z" style="fill-rule: nonzero;" fill="#FFD100"></path>
                    </g>
                </g>
            </g>
            <g transform="matrix(1,0,0,1,-23.8,-29.6)">
                <g>
                    <path d="M87.3,50L94.4,50C100.1,50 103.5,54 103.5,58.4C103.5,62.9 100,66.8 94.4,66.8L87.3,66.8L87.3,50ZM90.5,63.9L94.5,63.9C98.1,63.9 100.4,61.4 100.4,58.4C100.4,55.4 98.1,52.9 94.5,52.9L90.5,52.9L90.5,63.9Z" style="fill-rule:nonzero;" fill="#FFFFFF"></path>
                    <path d="M94.5,67.2L87,67.2L87,49.6L94.5,49.6C100.7,49.6 103.9,54 103.9,58.4C103.9,63.4 99.8,67.2 94.5,67.2ZM87.7,66.5L94.5,66.5C100.1,66.5 103.2,62.3 103.2,58.4C103.2,54.4 100.2,50.3 94.5,50.3L87.7,50.3L87.7,66.5ZM94.5,64.3L90.1,64.3L90.1,52.6L94.5,52.6C98.1,52.6 100.8,55.1 100.8,58.4C100.8,61.7 98.1,64.3 94.5,64.3ZM90.8,63.5L94.4,63.5C97.6,63.5 100,61.3 100,58.4C100,55.5 97.7,53.3 94.4,53.3L90.8,53.3L90.8,63.5Z" style="fill-rule:nonzero;" fill="#FFFFFF"></path>
                </g>
                <g>
                    <rect x="109.3" y="50" width="3.1" height="16.9" style="fill-rule:nonzero;" fill="#FFFFFF"></rect>
                    <path d="M112.7,67.2L108.9,67.2L108.9,49.6L112.7,49.6L112.7,67.2ZM109.6,66.5L112,66.5L112,50.4L109.6,50.4L109.6,66.5Z" style="fill-rule:nonzero;" fill="#FFFFFF"></path>
                </g>
                <g>
                    <path d="M123.9,52.8L120,52.8L120,50L127,50L134.1,66.9L130.7,66.9L129.4,63.7L122.3,63.7L121,66.9L117.7,66.9L123.9,52.8ZM128.4,60.9L126,54.9L123.5,60.9L128.4,60.9Z" style="fill-rule:nonzero;" fill="#FFFFFF"></path>
                    <path d="M134.7,67.2L130.6,67.2L129.3,64L122.6,64L121.3,67.2L117.2,67.2L123.4,53.1L119.7,53.1L119.7,49.6L127.3,49.6L134.7,67.2ZM131.1,66.5L133.7,66.5L126.9,50.4L120.5,50.4L120.5,52.5L124.6,52.5L118.4,66.6L120.9,66.6L122.2,63.4L129.8,63.4L131.1,66.5ZM129,61.3L123,61.3L126,53.9L129,61.3ZM124.1,60.5L127.9,60.5L126,55.8L124.1,60.5Z" style="fill-rule:nonzero;" fill="#FFFFFF"></path>
                </g>
                <g>
                    <path d="M139.4,49.6L146.9,57.2L154.4,49.6L154.4,66.8L151.3,66.8L151.3,56.4L146.9,60.9L142.5,56.4L142.5,66.8L139.4,66.8L139.4,49.6Z" style="fill-rule:nonzero;" fill="#FFFFFF"></path>
                    <path d="M154.8,67.2L150.9,67.2L150.9,57.3L146.9,61.5L142.9,57.3L142.9,67.2L139,67.2L139,48.8L146.9,56.7L154.8,48.8L154.8,67.2ZM151.6,66.5L154,66.5L154,50.5L146.9,57.7L139.8,50.5L139.8,66.5L142.2,66.5L142.2,55.5L146.9,60.4L151.6,55.5L151.6,66.5Z" style="fill-rule:nonzero;" fill="#FFFFFF"></path>
                </g>
                <g>
                    <path d="M169.5,49.6C174.5,49.6 178.6,53.4 178.6,58.4C178.6,63.4 174.6,67.2 169.5,67.2C164.4,67.2 160.4,63.4 160.4,58.4C160.4,53.4 164.4,49.6 169.5,49.6ZM169.5,64.3C172.5,64.3 175.3,61.7 175.3,58.5C175.3,55.2 172.6,52.7 169.5,52.7C166.5,52.7 163.7,55.3 163.7,58.5C163.7,61.7 166.4,64.3 169.5,64.3Z" style="fill-rule:nonzero;" fill="#FFFFFF"></path>
                    <path d="M169.5,67.6C164.2,67.6 160.1,63.6 160.1,58.5C160.1,53.4 164.2,49.4 169.5,49.4C174.8,49.4 178.9,53.4 178.9,58.5C178.9,63.6 174.7,67.6 169.5,67.6ZM169.5,50C164.6,50 160.8,53.7 160.8,58.4C160.8,63.1 164.6,66.8 169.5,66.8C174.4,66.8 178.2,63.1 178.2,58.4C178.2,53.7 174.3,50 169.5,50ZM169.5,64.6C166.2,64.6 163.4,61.8 163.4,58.4C163.4,55 166.2,52.2 169.5,52.2C172.8,52.2 175.6,55 175.6,58.4C175.6,61.8 172.8,64.6 169.5,64.6ZM169.5,53C166.6,53 164.1,55.5 164.1,58.5C164.1,61.5 166.6,64 169.5,64C172.4,64 174.9,61.5 174.9,58.5C174.9,55.5 172.4,53 169.5,53Z" style="fill-rule:nonzero;" fill="#FFFFFF"></path>
                </g>
                <g>
                    <path d="M187.7,56.5L187.7,66.8L184.6,66.8L184.6,49.6L195.5,60.3L195.5,50L198.6,50L198.6,67.2L187.7,56.5Z" style="fill-rule:nonzero;" fill="#FFFFFF"></path>
                    <path d="M198.9,68.1L188,57.4L188,67.2L184.2,67.2L184.2,48.8L195.1,59.5L195.1,49.7L198.9,49.7L198.9,68.1ZM184.9,66.5L187.3,66.5L187.3,55.7L198.2,66.4L198.2,50.4L195.8,50.4L195.8,61.2L184.9,50.5L184.9,66.5Z" style="fill-rule:nonzero;" fill="#FFFFFF"></path>
                </g>
                <g>
                    <path d="M206.1,50L213.2,50C218.9,50 222.2,54 222.2,58.4C222.2,62.9 218.7,66.8 213.2,66.8L206.1,66.8L206.1,50ZM209.2,63.9L213.2,63.9C216.8,63.9 219.1,61.4 219.1,58.4C219.1,55.4 216.8,52.9 213.2,52.9L209.2,52.9L209.2,63.9Z" style="fill-rule:nonzero;" fill="#FFFFFF"></path>
                    <path d="M213.2,67.2L205.7,67.2L205.7,49.6L213.2,49.6C219.4,49.6 222.6,54 222.6,58.4C222.6,63.4 218.6,67.2 213.2,67.2ZM206.5,66.5L213.3,66.5C218.9,66.5 222,62.3 222,58.4C222,54.4 219,50.3 213.3,50.3L206.5,50.3L206.5,66.5ZM213.2,64.3L208.8,64.3L208.8,52.6L213.2,52.6C216.8,52.6 219.5,55.1 219.5,58.4C219.5,61.7 216.9,64.3 213.2,64.3ZM209.6,63.5L213.2,63.5C216.4,63.5 218.8,61.3 218.8,58.4C218.8,55.5 216.5,53.3 213.2,53.3L209.6,53.3L209.6,63.5Z" style="fill-rule:nonzero;" fill="#FFFFFF"></path>
                </g>
            </g>
</svg>